<svg id="svg2" xmlns="http://www.w3.org/2000/svg" viewBox="0 0 345.51 161.02"><defs><style>.cls-1{fill:#7547d8;stroke:#7547d8;}.cls-1,.cls-2,.cls-3,.cls-4{fill-opacity:0.39;stroke-width:0.5px;}.cls-2{fill:#e74c3c;stroke:#e74c3c;}.cls-3{fill:#1abc9c;stroke:#1abc9c;}.cls-4{fill:#0875be;stroke:#0875be;}.cls-5{isolation:isolate;}.cls-6{fill:#fff;}.cls-7{fill:#34495e;}.cls-8{fill:none;stroke:#34495e;stroke-miterlimit:10;stroke-width:3px;}</style></defs><title>capacity_volume_conversion</title><g id="capacity_volume_conversion"><g id="layer1"><path id="rect4144" class="cls-1" d="M296.4,54.07h47.73c.63,0,1.13.77,1.13,1.71v46.58c0,1-.5,1.71-1.13,1.71H296.4c-.63,0-1.14-.76-1.14-1.71V55.78C295.26,54.84,295.77,54.07,296.4,54.07Z"/><path id="rect4138" class="cls-2" d="M1.38,54.14H49.12c.62,0,1.13.77,1.13,1.71v46.58c0,.95-.51,1.71-1.13,1.71H1.38c-.62,0-1.13-.76-1.13-1.71V55.85C.25,54.91.76,54.14,1.38,54.14Z"/><path id="rect4140" class="cls-3" d="M101.38,54.14h47.74c.62,0,1.13.77,1.13,1.71v46.58c0,.95-.51,1.71-1.13,1.71H101.38c-.62,0-1.13-.76-1.13-1.71V55.85C100.25,54.91,100.76,54.14,101.38,54.14Z"/><path id="rect4142" class="cls-4" d="M201.38,54.14h47.74c.62,0,1.13.77,1.13,1.71v46.58c0,.95-.51,1.71-1.13,1.71H201.38c-.62,0-1.13-.76-1.13-1.71V55.85C200.25,54.91,200.76,54.14,201.38,54.14Z"/><g id="text5813" class="cls-5"><g class="cls-5"><path class="cls-6" d="M24.51,77.48c0-1.38-.61-2.25-2-2.25a3.8,3.8,0,0,0-2.88,1.66v8H17.94V77.48c0-1.38-.58-2.25-2-2.25a3.79,3.79,0,0,0-2.86,1.68v8H11.39V74h1.69v1.57a4.71,4.71,0,0,1,3.51-1.84,2.8,2.8,0,0,1,2.93,2,4.56,4.56,0,0,1,3.64-2c2,0,3,1.1,3,3.28v7.86H24.51Z"/><path class="cls-6" d="M29.64,69.85h1.87V83.19h7v1.67H29.64Z"/></g></g><g id="text5935" class="cls-5"><g class="cls-5"><path class="cls-7" d="M257.2,11.25c0,.3-.13.45-.4.45H243.89c-.29,0-.43-.15-.43-.45s.14-.45.43-.45H256.8C257.07,10.8,257.2,11,257.2,11.25Zm-5.62-4.92a1.25,1.25,0,0,1-1.25,1.24,1.23,1.23,0,0,1-.89-.36,1.22,1.22,0,0,1-.37-.88,1.17,1.17,0,0,1,.38-.87,1.22,1.22,0,0,1,1.75,0A1.17,1.17,0,0,1,251.58,6.33Zm0,9.84a1.2,1.2,0,0,1-.38.88,1.24,1.24,0,0,1-1.75,0,1.2,1.2,0,0,1-.38-.88,1.26,1.26,0,0,1,2.51,0Z"/><path class="cls-7" d="M268.48,17.64c-.53,0-1-.06-1.5-.06h-4.44c-.47,0-1,0-1.48.06V17h.83c1.13,0,1.77-.15,1.93-.47a1.41,1.41,0,0,0,.1-.58V4a6.81,6.81,0,0,1-3,.59v-.7a5.54,5.54,0,0,0,4.16-1.46h.11q.32,0,.39.15a1.62,1.62,0,0,1,0,.43V16a1.3,1.3,0,0,0,.09.55c.11.25.53.39,1.28.44h1.49Z"/><path class="cls-7" d="M280.76,10.33a12.15,12.15,0,0,1-.86,5.15,4.21,4.21,0,0,1-4,2.66,4.13,4.13,0,0,1-3.78-2.3,11.54,11.54,0,0,1-1-5.51A12.56,12.56,0,0,1,272,5.11a4.28,4.28,0,0,1,7.89-.17A12.55,12.55,0,0,1,280.76,10.33Zm-1.9,1.12V8.59A12.22,12.22,0,0,0,278.45,5a2.56,2.56,0,0,0-5,0A12.31,12.31,0,0,0,273,8.6c0,.3,0,.75,0,1.34v1.33a16.28,16.28,0,0,0,.36,4c.44,1.61,1.29,2.41,2.55,2.41s2.12-.77,2.56-2.32A15,15,0,0,0,278.86,11.45Z"/><path class="cls-7" d="M292,10.33a12.15,12.15,0,0,1-.86,5.15,4.21,4.21,0,0,1-4,2.66,4.13,4.13,0,0,1-3.78-2.3,11.54,11.54,0,0,1-1-5.51,12.56,12.56,0,0,1,.84-5.22,4.28,4.28,0,0,1,7.89-.17A12.55,12.55,0,0,1,292,10.33Zm-1.9,1.12V8.59A12.22,12.22,0,0,0,289.7,5a2.56,2.56,0,0,0-5,0,12.31,12.31,0,0,0-.41,3.61c0,.3,0,.75,0,1.34v1.33a16.28,16.28,0,0,0,.36,4c.44,1.61,1.29,2.41,2.55,2.41s2.12-.77,2.56-2.32A15,15,0,0,0,290.11,11.45Z"/><path class="cls-7" d="M303.26,10.33a12.15,12.15,0,0,1-.86,5.15,4.21,4.21,0,0,1-4,2.66,4.13,4.13,0,0,1-3.78-2.3,11.54,11.54,0,0,1-1-5.51,12.56,12.56,0,0,1,.84-5.22,4.28,4.28,0,0,1,7.89-.17A12.55,12.55,0,0,1,303.26,10.33Zm-1.9,1.12V8.59A12.22,12.22,0,0,0,301,5a2.56,2.56,0,0,0-5,0,12.31,12.31,0,0,0-.41,3.61c0,.3,0,.75,0,1.34v1.33a16.28,16.28,0,0,0,.36,4c.44,1.61,1.29,2.41,2.55,2.41s2.12-.77,2.56-2.32A15,15,0,0,0,301.36,11.45Z"/></g></g><g id="text6045" class="cls-5"><g class="cls-5"><path class="cls-7" d="M256.1,155.07a.42.42,0,0,1-.47.48.33.33,0,0,1-.27-.11l-5-5-5,5a.39.39,0,0,1-.3.13c-.31,0-.46-.15-.46-.47a.44.44,0,0,1,.12-.3l5-5-5-5A.45.45,0,0,1,245,144a.39.39,0,0,1,.3.13l5,5,5-5a.33.33,0,0,1,.27-.11.42.42,0,0,1,.47.48.33.33,0,0,1-.11.26l-5,5,5,5A.33.33,0,0,1,256.1,155.07Z"/><path class="cls-7" d="M268.48,156.17c-.53,0-1-.07-1.5-.07h-4.44c-.47,0-1,0-1.48.07v-.68h.83c1.13,0,1.77-.16,1.93-.48a1.41,1.41,0,0,0,.1-.58V142.49a6.67,6.67,0,0,1-3,.59v-.7a5.54,5.54,0,0,0,4.16-1.46h.11q.32,0,.39.15a1.67,1.67,0,0,1,0,.43v13a1.34,1.34,0,0,0,.09.55c.11.24.53.39,1.28.44h1.49Z"/><path class="cls-7" d="M280.76,148.85a12.15,12.15,0,0,1-.86,5.15,4.2,4.2,0,0,1-4,2.66,4.12,4.12,0,0,1-3.78-2.29,11.56,11.56,0,0,1-1-5.52,12.56,12.56,0,0,1,.84-5.22,4.28,4.28,0,0,1,7.89-.16A12.5,12.5,0,0,1,280.76,148.85Zm-1.9,1.12v-2.85a12.3,12.3,0,0,0-.41-3.62,2.56,2.56,0,0,0-5,0,12.39,12.39,0,0,0-.41,3.62c0,.3,0,.74,0,1.34v1.33a16.13,16.13,0,0,0,.36,3.95c.44,1.61,1.29,2.42,2.55,2.42s2.12-.78,2.56-2.33A15,15,0,0,0,278.86,150Z"/><path class="cls-7" d="M292,148.85a12.15,12.15,0,0,1-.86,5.15,4.2,4.2,0,0,1-4,2.66,4.12,4.12,0,0,1-3.78-2.29,11.56,11.56,0,0,1-1-5.52,12.56,12.56,0,0,1,.84-5.22,4.28,4.28,0,0,1,7.89-.16A12.5,12.5,0,0,1,292,148.85Zm-1.9,1.12v-2.85a12.3,12.3,0,0,0-.41-3.62,2.56,2.56,0,0,0-5,0,12.39,12.39,0,0,0-.41,3.62c0,.3,0,.74,0,1.34v1.33a16.13,16.13,0,0,0,.36,3.95c.44,1.61,1.29,2.42,2.55,2.42s2.12-.78,2.56-2.33A15,15,0,0,0,290.11,150Z"/><path class="cls-7" d="M303.26,148.85a12.15,12.15,0,0,1-.86,5.15,4.2,4.2,0,0,1-4,2.66,4.12,4.12,0,0,1-3.78-2.29,11.56,11.56,0,0,1-1-5.52,12.56,12.56,0,0,1,.84-5.22,4.28,4.28,0,0,1,7.89-.16A12.5,12.5,0,0,1,303.26,148.85Zm-1.9,1.12v-2.85a12.3,12.3,0,0,0-.41-3.62,2.56,2.56,0,0,0-5,0,12.39,12.39,0,0,0-.41,3.62c0,.3,0,.74,0,1.34v1.33a16.13,16.13,0,0,0,.36,3.95c.44,1.61,1.29,2.42,2.55,2.42s2.12-.78,2.56-2.33A15,15,0,0,0,301.36,150Z"/></g></g><g id="text6227" class="cls-5"><g class="cls-5"><path class="cls-6" d="M221.27,69.85h1.87V83.19h7v1.67h-8.84Z"/></g></g><g id="text6219" class="cls-5"><g class="cls-5"><path class="cls-6" d="M112.71,73.72a4.64,4.64,0,0,1,4,1.89l-1.12,1a3.23,3.23,0,0,0-2.77-1.41c-2.32,0-3.76,1.77-3.76,4.18s1.44,4.21,3.76,4.21a3.28,3.28,0,0,0,2.77-1.42l1.12,1a4.64,4.64,0,0,1-4,1.89,5.71,5.71,0,0,1,0-11.41Z"/><path class="cls-6" d="M132.17,77.48c0-1.38-.6-2.25-2-2.25a3.8,3.8,0,0,0-2.88,1.66v8H125.6V77.48c0-1.38-.58-2.25-2-2.25a3.79,3.79,0,0,0-2.86,1.68v8h-1.69V74h1.69v1.57a4.71,4.71,0,0,1,3.51-1.84,2.8,2.8,0,0,1,2.93,2,4.56,4.56,0,0,1,3.64-2c2,0,3,1.1,3,3.28v7.86h-1.69Z"/><path class="cls-6" d="M136.49,74.08l.72-.86a3.4,3.4,0,0,0,2.61,1.22c1.31,0,2.09-.61,2.09-1.58,0-1.15-1-1.55-2.34-1.55-.4,0-.76,0-.9,0V70.21c.16,0,.52,0,.88,0,1.26,0,2.21-.38,2.21-1.44s-.9-1.44-2-1.44a3.13,3.13,0,0,0-2.45,1.1l-.7-.81a4.22,4.22,0,0,1,3.26-1.39c1.92,0,3.25.92,3.25,2.4a2.23,2.23,0,0,1-2,2.1,2.27,2.27,0,0,1,2.16,2.18c0,1.53-1.3,2.61-3.4,2.61A4,4,0,0,1,136.49,74.08Z"/></g></g><path class="cls-7" d="M83.8,76.38c0,.38-.17.56-.51.56H67.24c-.36,0-.54-.18-.54-.56a.49.49,0,0,1,.54-.56H83.29C83.63,75.82,83.8,76,83.8,76.38Zm0,5.52c0,.38-.17.56-.51.56H67.24c-.36,0-.54-.18-.54-.56a.49.49,0,0,1,.54-.56H83.29C83.63,81.34,83.8,81.53,83.8,81.9Z"/><g id="text6223" class="cls-5"><g class="cls-5"><path class="cls-6" d="M321.62,77.41c0-1.38-.61-2.26-2-2.26a3.78,3.78,0,0,0-2.88,1.67v8h-1.69V77.41c0-1.38-.59-2.26-2-2.26a3.77,3.77,0,0,0-2.85,1.69v8H308.5V73.92h1.69v1.57a4.68,4.68,0,0,1,3.51-1.84,2.79,2.79,0,0,1,2.92,2,4.58,4.58,0,0,1,3.65-2c2,0,3,1.1,3,3.28v7.86h-1.69Z"/><path class="cls-6" d="M325.94,74l.72-.86a3.39,3.39,0,0,0,2.61,1.22c1.3,0,2.09-.61,2.09-1.58,0-1.15-1-1.55-2.34-1.55-.41,0-.77,0-.9,0V70.13a6.83,6.83,0,0,0,.88,0c1.26,0,2.2-.38,2.2-1.44s-.9-1.44-2-1.44a3.13,3.13,0,0,0-2.45,1.1l-.7-.81a4.23,4.23,0,0,1,3.26-1.4c1.92,0,3.24.93,3.24,2.41a2.22,2.22,0,0,1-2,2.1,2.28,2.28,0,0,1,2.16,2.18c0,1.53-1.31,2.61-3.4,2.61A4,4,0,0,1,325.94,74Z"/></g></g></g><path class="cls-8" d="M235.56,51.88a46.45,46.45,0,0,1,77.22-11.56"/><polygon class="cls-7" points="320.26 51.88 302.83 40.25 311.98 39.62 315.97 31.37 320.26 51.88"/><path class="cls-8" d="M318.45,106.26a46.44,46.44,0,0,1-77.21,11.56"/><polygon class="cls-7" points="233.75 106.26 251.19 117.9 242.04 118.52 238.05 126.77 233.75 106.26"/></g></svg>